Coordinates
version=1
nRows=12
nColumns=24
inDegrees=yes

Units are S.I. units (second, meters, Newtons, ...)
Angles are in degrees.

endheader
time	pelvis_tilt	pelvis_list	pelvis_rotation	pelvis_tx	pelvis_ty	pelvis_tz	hip_flexion_r	hip_adduction_r	hip_rotation_r	knee_angle_r	ankle_angle_r	subtalar_angle_r	mtp_angle_r	hip_flexion_l	hip_adduction_l	hip_rotation_l	knee_angle_l	ankle_angle_l	subtalar_angle_l	mtp_angle_l	lumbar_extension	lumbar_bending	lumbar_rotation
      5.14000000	     -0.11132748	     -5.86039718	     -7.13964052	      1.59203999	      0.91996754	     -0.18726201	    -14.87572050	      9.05639812	      5.43725360	    -11.81626232	     22.32110841	      5.45140466	      0.00000000	     24.54997537	     -5.45417593	     -3.10592001	     -4.37043726	      2.08745411	    -10.11966485	      0.00000000	    -18.04932911	      3.36948894	      9.99078696
      5.15000000	     -0.14073884	     -5.52223262	     -7.36450488	      1.60624079	      0.91955407	     -0.18808269	    -14.78011121	      8.42763082	      4.82540044	    -13.49186874	     21.70381129	      6.14221586	      0.00000000	     24.64086014	     -4.94880768	     -2.13728828	     -6.05443487	      1.09529829	    -11.09028497	      0.00000000	    -17.95577167	      2.92141372	      9.83490989
      5.16000000	     -0.18046918	     -5.08078748	     -7.47202066	      1.62055430	      0.91939367	     -0.18911959	    -14.53329269	      7.68961197	      3.94181791	    -15.34139693	     20.81669847	      6.83808263	      0.00000000	     24.79200902	     -4.24688057	     -0.80805981	     -7.79417856	      0.10996732	    -11.68376183	      0.00000000	    -17.81687193	      2.37719700	      9.56536158
      5.17000000	     -0.11508988	     -4.52824127	     -7.42701357	      1.63497814	      0.91968059	     -0.19043260	    -14.27796194	      6.81650264	      2.80138440	    -17.31775382	     19.59818012	      7.54560061	      0.00000000	     24.88541763	     -3.31250122	      0.75511039	     -9.57276618	     -0.83779841	    -11.83023136	      0.00000000	    -17.78441109	      1.71536711	      9.14174840
      5.18000000	      0.01694769	     -3.92723460	     -7.21647144	      1.64946843	      0.92030847	     -0.19202847	    -13.97837221	      5.88419568	      1.45696154	    -19.41897998	     17.95235316	      8.03422577	      0.00000000	     25.01230869	     -2.22032352	      2.31265691	    -11.50221276	     -1.32713533	    -11.35866901	      0.00000000	    -17.82003366	      1.02394052	      8.61538087
      5.19000000	      0.22571759	     -3.32519296	     -6.84848011	      1.66404023	      0.92125538	     -0.19388308	    -13.66952275	      4.94523870	      0.01601809	    -21.61676756	     15.82101805	      8.30301218	      0.00000000	     25.12566666	     -1.03204874	      3.75746676	    -13.55742681	     -1.49596819	    -10.50885493	      0.00000000	    -17.93567813	      0.35805794	      7.96411409
      5.20000000	      0.47709693	     -2.79134953	     -6.39294671	      1.67864310	      0.92238631	     -0.19590704	    -13.27404276	      4.02754083	     -1.59161530	    -23.99634689	     13.33846691	      8.62235727	      0.00000000	     25.24273938	      0.11550404	      4.79055759	    -15.75239712	     -1.00191341	     -9.29328941	      0.00000000	    -18.10213079	     -0.20355627	      7.30324713
      5.21000000	      0.75845457	     -2.41448935	     -5.86694296	      1.69320331	      0.92365073	     -0.19801731	    -12.81870234	      3.28258856	     -3.02086712	    -26.47814158	     10.33143419	      8.36084783	      0.00000000	     25.28125328	      1.11516822	      5.62148989	    -17.93408609	     -0.20980317	     -8.17126872	      0.00000000	    -18.31589749	     -0.55992828	      6.70181169
      5.22000000	      1.01441927	     -2.16898761	     -5.39620555	      1.70762898	      0.92497418	     -0.19998512	    -12.18278912	      2.67631847	     -4.13157275	    -29.14773144	      6.95982486	      7.73417889	      0.00000000	     25.22654344	      1.89356942	      6.04239914	    -19.95446179	      0.86527223	     -7.18185879	      0.00000000	    -18.50532480	     -0.77630291	      6.21240199
      5.23000000	      1.24049840	     -2.04219832	     -5.01116574	      1.72182393	      0.92634410	     -0.20183841	    -11.32987189	      2.16282118	     -5.02401983	    -32.02701231	      3.51323378	      6.82968153	      0.00000000	     25.02495540	      2.46405115	      6.24194262	    -21.68902105	      2.03930361	     -6.58290907	      0.00000000	    -18.66869053	     -0.85369955	      5.90837081
      5.24000000	      1.41340216	     -1.99618988	     -4.77464396	      1.73569270	      0.92777641	     -0.20346237	    -10.21899392	      1.73175888	     -5.53754507	    -35.11104819	      0.18693184	      5.70181785	      0.00000000	     24.66290104	      2.83718861	      6.23779185	    -23.04414917	      3.28867578	     -6.31547094	      0.00000000	    -18.78184692	     -0.85201515	      5.74153362
      5.25000000	      1.53114358	     -1.96325969	     -4.72664681	      1.74917281	      0.92929802	     -0.20479600	     -8.83697859	      1.30563763	     -5.72632032	    -38.38418600	     -2.74206103	      4.42464943	      0.00000000	     24.14653242	      3.05835447	      5.94924683	    -23.99611492	      4.57877867	     -6.03173860	      0.00000000	    -18.83643472	     -0.86363973	      5.83130560
